<svg width="20" height="20" viewBox="0 0 20 20" fill="none" xmlns="http://www.w3.org/2000/svg">
<path d="M14.1666 2.78333C15.4335 3.51474 16.4854 4.56673 17.2169 5.83357C17.9483 7.1004 18.3333 8.53745 18.3333 10.0003C18.3333 11.4631 17.9482 12.9001 17.2168 14.1669C16.4854 15.4338 15.4334 16.4858 14.1665 17.2171C12.8997 17.9485 11.4626 18.3336 9.99983 18.3335C8.53701 18.3335 7.09998 17.9484 5.83316 17.217C4.56633 16.4856 3.51437 15.4336 2.78299 14.1667C2.05161 12.8999 1.66659 11.4628 1.66663 10L1.67079 9.73C1.71746 8.29083 2.13625 6.8883 2.88633 5.65916C3.6364 4.43002 4.69217 3.41621 5.9507 2.71657C7.20923 2.01693 8.62758 1.65533 10.0675 1.66703C11.5073 1.67873 12.9196 2.06333 14.1666 2.78333ZM9.99996 5C9.77894 5 9.56698 5.0878 9.4107 5.24408C9.25442 5.40036 9.16663 5.61232 9.16663 5.83333C8.50358 5.83333 7.8677 6.09673 7.39886 6.56557C6.93002 7.03441 6.66663 7.67029 6.66663 8.33333C6.66663 8.99638 6.93002 9.63226 7.39886 10.1011C7.8677 10.5699 8.50358 10.8333 9.16663 10.8333V12.5C9.02842 12.5077 8.89044 12.4814 8.76467 12.4236C8.6389 12.3658 8.52915 12.2782 8.44496 12.1683L8.38829 12.0842C8.27428 11.9003 8.09322 11.768 7.88341 11.7152C7.67359 11.6624 7.45147 11.6933 7.26401 11.8013C7.07655 11.9093 6.93845 12.086 6.87891 12.294C6.81937 12.502 6.84305 12.725 6.94496 12.9158C7.15766 13.2847 7.46105 13.5932 7.82638 13.8119C8.19171 14.0307 8.60685 14.1525 9.03246 14.1658H9.16663C9.16645 14.3701 9.24129 14.5673 9.37695 14.72C9.5126 14.8727 9.69961 14.9703 9.90246 14.9942L9.99996 15C10.221 15 10.4329 14.9122 10.5892 14.7559C10.7455 14.5996 10.8333 14.3877 10.8333 14.1667L10.98 14.1625C11.6296 14.125 12.2391 13.8356 12.6787 13.3558C13.1184 12.8761 13.3537 12.2438 13.3346 11.5933C13.3155 10.9428 13.0435 10.3254 12.5765 9.87231C12.1094 9.41918 11.484 9.16604 10.8333 9.16667V7.5C11.1316 7.49 11.3925 7.61667 11.555 7.83167L11.6116 7.91583C11.7256 8.09971 11.9067 8.23203 12.1165 8.28482C12.3263 8.33762 12.5484 8.30674 12.7359 8.19872C12.9234 8.09071 13.0615 7.91402 13.121 7.70602C13.1806 7.49802 13.1569 7.27502 13.055 7.08417C12.8424 6.71513 12.539 6.40651 12.1737 6.18761C11.8083 5.9687 11.3931 5.84675 10.9675 5.83333H10.8333C10.8333 5.61232 10.7455 5.40036 10.5892 5.24408C10.4329 5.0878 10.221 5 9.99996 5ZM10.8333 10.8333C11.0543 10.8333 11.2663 10.9211 11.4225 11.0774C11.5788 11.2337 11.6666 11.4457 11.6666 11.6667C11.6666 11.8877 11.5788 12.0996 11.4225 12.2559C11.2663 12.4122 11.0543 12.5 10.8333 12.5V10.8333ZM9.16663 7.5V9.16667C8.94561 9.16667 8.73365 9.07887 8.57737 8.92259C8.42109 8.76631 8.33329 8.55435 8.33329 8.33333C8.33329 8.11232 8.42109 7.90036 8.57737 7.74408C8.73365 7.5878 8.94561 7.5 9.16663 7.5Z" fill="#DA2720"/>
</svg>
