<svg width="20" height="20" viewBox="0 0 20 20" fill="none" xmlns="http://www.w3.org/2000/svg">
<path fill-rule="evenodd" clip-rule="evenodd" d="M3.125 2.8125H9.0625C9.2351 2.8125 9.375 2.9524 9.375 3.125V9.0625C9.375 9.2351 9.2351 9.375 9.0625 9.375H3.125C2.9524 9.375 2.8125 9.2351 2.8125 9.0625V3.125C2.8125 2.9524 2.9524 2.8125 3.125 2.8125ZM14.1468 2.31771L17.6823 5.85326C17.8043 5.97529 17.8043 6.17314 17.6823 6.29519L14.1467 9.83072C14.0247 9.95275 13.8269 9.95275 13.7048 9.83072L10.1693 6.29517C10.0472 6.17314 10.0472 5.97529 10.1693 5.85324L13.7048 2.31771C13.8269 2.19568 14.0247 2.19568 14.1468 2.31771ZM3.125 10.625H9.0625C9.2351 10.625 9.375 10.7649 9.375 10.9375V16.875C9.375 17.0476 9.2351 17.1875 9.0625 17.1875H3.125C2.9524 17.1875 2.8125 17.0476 2.8125 16.875V10.9375C2.8125 10.7649 2.9524 10.625 3.125 10.625ZM10.9375 10.625H16.875C17.0476 10.625 17.1875 10.7649 17.1875 10.9375V16.875C17.1875 17.0476 17.0476 17.1875 16.875 17.1875H10.9375C10.7649 17.1875 10.625 17.0476 10.625 16.875V10.9375C10.625 10.7649 10.7649 10.625 10.9375 10.625Z" fill="#DA2720"/>
</svg>
